<svg width="40" height="40" viewBox="0 0 40 40" fill="none" xmlns="http://www.w3.org/2000/svg">
<circle cx="20" cy="20" r="20" transform="matrix(-1 0 0 1 40 0)" fill="#145E94"/>
<path d="M14.184 12.112C14.2586 12.051 14.3493 12.0129 14.4451 12.0023C14.5409 11.9916 14.6378 12.0089 14.724 12.052L29.724 19.552C29.8072 19.5935 29.8772 19.6573 29.9261 19.7364C29.975 19.8154 30.001 19.9065 30.001 19.9995C30.001 20.0925 29.975 20.1836 29.9261 20.2627C29.8772 20.3417 29.8072 20.4055 29.724 20.447L14.724 27.947C14.6379 27.9902 14.5411 28.0075 14.4454 27.9969C14.3496 27.9864 14.2589 27.9484 14.1843 27.8876C14.1096 27.8267 14.0541 27.7456 14.0244 27.654C13.9947 27.5623 13.9922 27.4641 14.017 27.371L15.983 20L14.017 12.629C13.992 12.5359 13.9945 12.4376 14.0241 12.3459C14.0538 12.2541 14.1093 12.1729 14.184 12.112ZM16.884 20.5L15.27 26.556L28.382 20L15.269 13.444L16.884 19.5H23.5C23.6326 19.5 23.7598 19.5527 23.8535 19.6465C23.9473 19.7402 24 19.8674 24 20C24 20.1326 23.9473 20.2598 23.8535 20.3536C23.7598 20.4473 23.6326 20.5 23.5 20.5H16.884Z" fill="white"/>
</svg>
